<svg width="14" height="14" viewBox="0 0 14 14" fill="none" xmlns="http://www.w3.org/2000/svg">
<path d="M13.125 9.625C12.8625 9.625 12.6218 9.84375 12.6218 10.1281V12.075C12.6218 12.2719 12.4687 12.425 12.2718 12.425H1.72808C1.5312 12.425 1.37808 12.2719 1.37808 12.075V10.1281C1.37808 9.84375 1.13745 9.625 0.874951 9.625C0.612451 9.625 0.371826 9.84375 0.371826 10.1281V12.075C0.371826 12.8187 0.962451 13.4094 1.7062 13.4094H12.2718C13.0156 13.4094 13.6062 12.8187 13.6062 12.075V10.1281C13.6281 9.84375 13.3875 9.625 13.125 9.625Z" fill="#6A6A6A"/>
<path d="M6.64995 10.1718C6.73745 10.2593 6.8687 10.3031 6.99995 10.3031C7.1312 10.3031 7.24057 10.2593 7.34995 10.1718L10.5218 7.08745C10.7187 6.89058 10.7187 6.58433 10.5218 6.38745C10.325 6.19058 10.0187 6.19058 9.82183 6.38745L7.50307 8.66245V1.0937C7.50307 0.831201 7.28432 0.590576 6.99995 0.590576C6.73745 0.590576 6.49682 0.809326 6.49682 1.0937V8.66245L4.17807 6.38745C3.9812 6.19058 3.67495 6.21245 3.47807 6.38745C3.2812 6.58433 3.30307 6.89058 3.47807 7.08745L6.64995 10.1718Z" fill="#6A6A6A"/>
</svg>
