<svg width="16" height="14" viewBox="0 0 16 14" fill="none" xmlns="http://www.w3.org/2000/svg">
<path d="M14 0.100342H8.55005C7.70005 0.100342 6.97505 0.800342 6.97505 1.67534V3.45034H2.00005C1.15005 3.45034 0.425049 4.15034 0.425049 5.02534V9.82534C0.425049 10.1253 0.550049 10.4253 0.775049 10.6503L3.75005 13.5753C3.97505 13.8003 4.27505 13.9253 4.57505 13.9253H7.45005C8.30005 13.9253 9.00005 13.2253 9.00005 12.3503V8.97534L10.275 10.2503C10.5 10.4753 10.8 10.6003 11.1 10.6003H14C14.85 10.6003 15.575 9.90034 15.575 9.02534V1.65034C15.575 0.800342 14.85 0.100342 14 0.100342ZM2.35005 10.5753H3.72505C3.75005 10.5753 3.77505 10.6003 3.77505 10.6253V12.0003L2.35005 10.5753ZM7.90005 12.3503C7.90005 12.6003 7.70005 12.8003 7.47505 12.8003H4.90005V10.6503C4.90005 10.0003 4.37505 9.47534 3.72505 9.47534H1.57505V4.97534C1.57505 4.72534 1.77505 4.52534 2.02505 4.52534H7.87505C7.90005 4.52534 7.92505 4.55034 7.92505 4.57534V12.3503H7.90005ZM9.02505 7.37534V7.25034H10.275C10.3 7.25034 10.325 7.27534 10.325 7.30034V8.67534L9.02505 7.37534ZM14.45 9.02534C14.45 9.27534 14.25 9.47534 14 9.47534H11.425V7.32534C11.425 6.67534 10.9 6.15034 10.25 6.15034H9.00005V4.60034C9.00005 4.05034 8.60005 3.57534 8.10005 3.47534V1.67534C8.10005 1.42534 8.30005 1.22534 8.55005 1.22534H14C14.25 1.22534 14.45 1.42534 14.45 1.67534V9.02534Z" fill="#6A6A6A"/>
</svg>
