<svg width="22" height="24" viewBox="0 0 22 24" fill="none" xmlns="http://www.w3.org/2000/svg">
<path d="M21.0875 11.775C20.675 11.5875 20.15 11.7375 19.9625 12.1875L19.775 12.5625L18.9875 12.1875C18.575 12 18.05 12.15 17.8625 12.6C17.675 13.05 17.825 13.5375 18.275 13.725L19.0625 14.1L17.825 16.65C16.4 16.3875 14.9 17.0625 14.225 18.45C13.4375 20.1 14.1125 22.05 15.7625 22.875C16.2125 23.1 16.7 23.2125 17.1875 23.2125C18.425 23.2125 19.5875 22.5375 20.15 21.3375C20.825 19.95 20.4125 18.3375 19.325 17.4L21.5 12.9C21.6875 12.45 21.5375 11.9625 21.0875 11.775ZM18.6875 20.55C18.3125 21.3375 17.3375 21.675 16.55 21.3C15.7625 20.925 15.425 19.95 15.8 19.1625C16.0625 18.6 16.6625 18.2625 17.2625 18.2625C17.4875 18.2625 17.75 18.3 17.975 18.4125C18.725 18.7875 19.0625 19.725 18.6875 20.55Z" fill="#AAAAAA"/>
<path d="M11.225 21.5624C10.6625 21.6374 10.0625 21.6749 9.50005 21.6749C6.42505 21.6749 3.46255 20.5124 2.11255 19.9124C2.26255 17.5499 3.01255 15.4124 4.32505 13.8749C5.67505 12.2625 7.51255 11.3624 9.50005 11.3624C11.4875 11.3624 13.325 12.2625 14.675 13.8749C14.975 14.2499 15.5 14.2874 15.875 13.9874C16.25 13.6874 16.2875 13.1624 15.9875 12.7874C14.8625 11.4374 13.4375 10.5 11.8625 10.0125C13.4375 9.18745 14.4875 7.53745 14.4875 5.62495C14.4875 2.88745 12.275 0.637451 9.50005 0.637451C6.72505 0.637451 4.55005 2.88745 4.55005 5.62495C4.55005 7.49995 5.60005 9.14995 7.17505 10.0125C5.60005 10.5 4.21255 11.4374 3.05005 12.7874C1.40005 14.7374 0.462549 17.4375 0.425049 20.4C0.425049 20.7374 0.612549 21.0374 0.875049 21.1874C1.92505 21.7125 5.60005 23.3624 9.50005 23.3624C10.1375 23.3624 10.775 23.3249 11.4125 23.2499C11.8625 23.2125 12.2 22.7624 12.1625 22.3124C12.125 21.8624 11.7125 21.4874 11.225 21.5624ZM9.50005 2.36245C11.3 2.36245 12.8 3.82495 12.8 5.66245C12.8 7.49995 11.3375 8.96245 9.50005 8.96245C7.66255 8.96245 6.20005 7.49995 6.20005 5.66245C6.20005 3.82495 7.70005 2.36245 9.50005 2.36245Z" fill="#AAAAAA"/>
</svg>
