<svg width="250" height="250" viewBox="0 0 250 250" fill="none" xmlns="http://www.w3.org/2000/svg">
<mask id="path-1-inside-1_2281_28327" fill="white">
<path d="M125 250C111.883 250 98.8478 247.935 86.3729 243.882L94.0983 220.106C104.078 223.348 114.506 225 125 225V250Z"/>
</mask>
<path d="M125 250C111.883 250 98.8478 247.935 86.3729 243.882L94.0983 220.106C104.078 223.348 114.506 225 125 225V250Z" fill="#008000" stroke="#2A2A2A" stroke-width="2" mask="url(#path-1-inside-1_2281_28327)"/>
<mask id="path-2-inside-2_2281_28327" fill="white">
<path d="M86.3729 243.882C73.8979 239.829 62.1386 233.837 51.5268 226.127L66.2214 205.902C74.7109 212.07 84.1183 216.863 94.0983 220.106L86.3729 243.882Z"/>
</mask>
<path d="M86.3729 243.882C73.8979 239.829 62.1386 233.837 51.5268 226.127L66.2214 205.902C74.7109 212.07 84.1183 216.863 94.0983 220.106L86.3729 243.882Z" fill="#008000" stroke="#2A2A2A" stroke-width="2" mask="url(#path-2-inside-2_2281_28327)"/>
<mask id="path-3-inside-3_2281_28327" fill="white">
<path d="M51.5268 226.127C40.915 218.417 31.5829 209.085 23.8729 198.473L44.0983 183.779C50.2663 192.268 57.732 199.734 66.2215 205.902L51.5268 226.127Z"/>
</mask>
<path d="M51.5268 226.127C40.915 218.417 31.5829 209.085 23.8729 198.473L44.0983 183.779C50.2663 192.268 57.732 199.734 66.2215 205.902L51.5268 226.127Z" fill="#008000" stroke="#2A2A2A" stroke-width="2" mask="url(#path-3-inside-3_2281_28327)"/>
<mask id="path-4-inside-4_2281_28327" fill="white">
<path d="M23.8729 198.473C16.1629 187.861 10.1713 176.102 6.11795 163.627L29.8944 155.902C33.137 165.882 37.9303 175.289 44.0983 183.779L23.8729 198.473Z"/>
</mask>
<path d="M23.8729 198.473C16.1629 187.861 10.1713 176.102 6.11795 163.627L29.8944 155.902C33.137 165.882 37.9303 175.289 44.0983 183.779L23.8729 198.473Z" fill="#008000" stroke="#2A2A2A" stroke-width="2" mask="url(#path-4-inside-4_2281_28327)"/>
<mask id="path-5-inside-5_2281_28327" fill="white">
<path d="M6.11794 163.627C2.06458 151.152 5.10793e-06 138.117 0 125L25 125C25 135.494 26.6517 145.922 29.8944 155.902L6.11794 163.627Z"/>
</mask>
<path d="M6.11794 163.627C2.06458 151.152 5.10793e-06 138.117 0 125L25 125C25 135.494 26.6517 145.922 29.8944 155.902L6.11794 163.627Z" fill="#008000" stroke="#2A2A2A" stroke-width="2" mask="url(#path-5-inside-5_2281_28327)"/>
<mask id="path-6-inside-6_2281_28327" fill="white">
<path d="M0 125C1.14672e-06 111.883 2.06457 98.8479 6.11793 86.3729L29.8943 94.0983C26.6517 104.078 25 114.506 25 125H0Z"/>
</mask>
<path d="M0 125C1.14672e-06 111.883 2.06457 98.8479 6.11793 86.3729L29.8943 94.0983C26.6517 104.078 25 114.506 25 125H0Z" fill="#008000" stroke="#2A2A2A" stroke-width="2" mask="url(#path-6-inside-6_2281_28327)"/>
<mask id="path-7-inside-7_2281_28327" fill="white">
<path d="M6.11793 86.3729C10.1713 73.8979 16.1629 62.1387 23.8728 51.5269L44.0983 66.2215C37.9303 74.711 33.137 84.1183 29.8943 94.0983L6.11793 86.3729Z"/>
</mask>
<path d="M6.11793 86.3729C10.1713 73.8979 16.1629 62.1387 23.8728 51.5269L44.0983 66.2215C37.9303 74.711 33.137 84.1183 29.8943 94.0983L6.11793 86.3729Z" fill="#008000" stroke="#2A2A2A" stroke-width="2" mask="url(#path-7-inside-7_2281_28327)"/>
<mask id="path-8-inside-8_2281_28327" fill="white">
<path d="M23.8729 51.5268C31.5828 40.915 40.915 31.5828 51.5268 23.8729L66.2215 44.0983C57.732 50.2663 50.2663 57.732 44.0983 66.2215L23.8729 51.5268Z"/>
</mask>
<path d="M23.8729 51.5268C31.5828 40.915 40.915 31.5828 51.5268 23.8729L66.2215 44.0983C57.732 50.2663 50.2663 57.732 44.0983 66.2215L23.8729 51.5268Z" fill="#008000" stroke="#2A2A2A" stroke-width="2" mask="url(#path-8-inside-8_2281_28327)"/>
<mask id="path-9-inside-9_2281_28327" fill="white">
<path d="M51.5269 23.8729C62.1387 16.1629 73.8979 10.1713 86.3729 6.11794L94.0983 29.8944C84.1183 33.137 74.711 37.9303 66.2215 44.0983L51.5269 23.8729Z"/>
</mask>
<path d="M51.5269 23.8729C62.1387 16.1629 73.8979 10.1713 86.3729 6.11794L94.0983 29.8944C84.1183 33.137 74.711 37.9303 66.2215 44.0983L51.5269 23.8729Z" fill="#008000" stroke="#2A2A2A" stroke-width="2" mask="url(#path-9-inside-9_2281_28327)"/>
<mask id="path-10-inside-10_2281_28327" fill="white">
<path d="M86.3729 6.11794C98.8478 2.06458 111.883 -1.56418e-07 125 0V25C114.506 25 104.078 26.6517 94.0983 29.8944L86.3729 6.11794Z"/>
</mask>
<path d="M86.3729 6.11794C98.8478 2.06458 111.883 -1.56418e-07 125 0V25C114.506 25 104.078 26.6517 94.0983 29.8944L86.3729 6.11794Z" fill="#008000" stroke="#2A2A2A" stroke-width="2" mask="url(#path-10-inside-10_2281_28327)"/>
<mask id="path-11-inside-11_2281_28327" fill="white">
<path d="M125 0C138.117 1.56418e-07 151.152 2.06458 163.627 6.11794L155.902 29.8944C145.922 26.6517 135.494 25 125 25V0Z"/>
</mask>
<path d="M125 0C138.117 1.56418e-07 151.152 2.06458 163.627 6.11794L155.902 29.8944C145.922 26.6517 135.494 25 125 25V0Z" fill="#008000" stroke="#2A2A2A" stroke-width="2" mask="url(#path-11-inside-11_2281_28327)"/>
<mask id="path-12-inside-12_2281_28327" fill="white">
<path d="M163.627 6.11794C176.102 10.1713 187.861 16.1629 198.473 23.8729L183.779 44.0983C175.289 37.9304 165.882 33.137 155.902 29.8944L163.627 6.11794Z"/>
</mask>
<path d="M163.627 6.11794C176.102 10.1713 187.861 16.1629 198.473 23.8729L183.779 44.0983C175.289 37.9304 165.882 33.137 155.902 29.8944L163.627 6.11794Z" fill="#008000" stroke="#2A2A2A" stroke-width="2" mask="url(#path-12-inside-12_2281_28327)"/>
<mask id="path-13-inside-13_2281_28327" fill="white">
<path d="M198.473 23.8729C209.085 31.5829 218.417 40.915 226.127 51.5269L205.902 66.2215C199.734 57.732 192.268 50.2663 183.779 44.0983L198.473 23.8729Z"/>
</mask>
<path d="M198.473 23.8729C209.085 31.5829 218.417 40.915 226.127 51.5269L205.902 66.2215C199.734 57.732 192.268 50.2663 183.779 44.0983L198.473 23.8729Z" fill="#008000" stroke="#2A2A2A" stroke-width="2" mask="url(#path-13-inside-13_2281_28327)"/>
<mask id="path-14-inside-14_2281_28327" fill="white">
<path d="M226.127 51.5269C233.837 62.1387 239.829 73.898 243.882 86.3729L220.106 94.0984C216.863 84.1184 212.07 74.711 205.902 66.2215L226.127 51.5269Z"/>
</mask>
<path d="M226.127 51.5269C233.837 62.1387 239.829 73.898 243.882 86.3729L220.106 94.0984C216.863 84.1184 212.07 74.711 205.902 66.2215L226.127 51.5269Z" fill="#008000" stroke="#2A2A2A" stroke-width="2" mask="url(#path-14-inside-14_2281_28327)"/>
<mask id="path-15-inside-15_2281_28327" fill="white">
<path d="M243.882 86.3729C247.935 98.8478 250 111.883 250 125L225 125C225 114.506 223.348 104.078 220.106 94.0983L243.882 86.3729Z"/>
</mask>
<path d="M243.882 86.3729C247.935 98.8478 250 111.883 250 125L225 125C225 114.506 223.348 104.078 220.106 94.0983L243.882 86.3729Z" fill="#6A6A6A" stroke="#2A2A2A" stroke-width="2" mask="url(#path-15-inside-15_2281_28327)"/>
<mask id="path-16-inside-16_2281_28327" fill="white">
<path d="M250 125C250 138.117 247.935 151.152 243.882 163.627L220.106 155.902C223.348 145.922 225 135.494 225 125H250Z"/>
</mask>
<path d="M250 125C250 138.117 247.935 151.152 243.882 163.627L220.106 155.902C223.348 145.922 225 135.494 225 125H250Z" fill="#6A6A6A" stroke="#2A2A2A" stroke-width="2" mask="url(#path-16-inside-16_2281_28327)"/>
<mask id="path-17-inside-17_2281_28327" fill="white">
<path d="M243.882 163.627C239.829 176.102 233.837 187.861 226.127 198.473L205.902 183.779C212.07 175.289 216.863 165.882 220.106 155.902L243.882 163.627Z"/>
</mask>
<path d="M243.882 163.627C239.829 176.102 233.837 187.861 226.127 198.473L205.902 183.779C212.07 175.289 216.863 165.882 220.106 155.902L243.882 163.627Z" fill="#6A6A6A" stroke="#2A2A2A" stroke-width="2" mask="url(#path-17-inside-17_2281_28327)"/>
<mask id="path-18-inside-18_2281_28327" fill="white">
<path d="M226.127 198.473C218.417 209.085 209.085 218.417 198.473 226.127L183.779 205.902C192.268 199.734 199.734 192.268 205.902 183.779L226.127 198.473Z"/>
</mask>
<path d="M226.127 198.473C218.417 209.085 209.085 218.417 198.473 226.127L183.779 205.902C192.268 199.734 199.734 192.268 205.902 183.779L226.127 198.473Z" fill="#6A6A6A" stroke="#2A2A2A" stroke-width="2" mask="url(#path-18-inside-18_2281_28327)"/>
<mask id="path-19-inside-19_2281_28327" fill="white">
<path d="M198.473 226.127C187.861 233.837 176.102 239.829 163.627 243.882L155.902 220.106C165.882 216.863 175.289 212.07 183.779 205.902L198.473 226.127Z"/>
</mask>
<path d="M198.473 226.127C187.861 233.837 176.102 239.829 163.627 243.882L155.902 220.106C165.882 216.863 175.289 212.07 183.779 205.902L198.473 226.127Z" fill="#6A6A6A" stroke="#2A2A2A" stroke-width="2" mask="url(#path-19-inside-19_2281_28327)"/>
<mask id="path-20-inside-20_2281_28327" fill="white">
<path d="M163.627 243.882C151.152 247.935 138.117 250 125 250L125 225C135.494 225 145.922 223.348 155.902 220.106L163.627 243.882Z"/>
</mask>
<path d="M163.627 243.882C151.152 247.935 138.117 250 125 250L125 225C135.494 225 145.922 223.348 155.902 220.106L163.627 243.882Z" fill="#6A6A6A" stroke="#2A2A2A" stroke-width="2" mask="url(#path-20-inside-20_2281_28327)"/>
<path d="M71.475 159.18C70.65 159.18 69.9525 159.022 69.3825 158.707C68.8125 158.387 68.355 157.965 68.01 157.44C67.665 156.91 67.4125 156.325 67.2525 155.685C67.0975 155.045 67.02 154.4 67.02 153.75C67.02 153.1 67.0975 152.455 67.2525 151.815C67.4125 151.175 67.665 150.592 68.01 150.067C68.355 149.537 68.8125 149.115 69.3825 148.8C69.9525 148.48 70.65 148.32 71.475 148.32C72.305 148.32 73.005 148.48 73.575 148.8C74.145 149.115 74.6025 149.537 74.9475 150.067C75.2925 150.592 75.5425 151.175 75.6975 151.815C75.8525 152.455 75.93 153.1 75.93 153.75C75.93 154.4 75.8525 155.045 75.6975 155.685C75.5425 156.325 75.2925 156.91 74.9475 157.44C74.6025 157.965 74.145 158.387 73.575 158.707C73.005 159.022 72.305 159.18 71.475 159.18ZM71.475 157.95C72.055 157.95 72.5425 157.822 72.9375 157.567C73.3325 157.312 73.65 156.977 73.89 156.562C74.135 156.142 74.31 155.687 74.415 155.197C74.525 154.702 74.58 154.22 74.58 153.75C74.58 153.235 74.525 152.73 74.415 152.235C74.31 151.735 74.135 151.282 73.89 150.877C73.65 150.467 73.3325 150.142 72.9375 149.902C72.5425 149.657 72.055 149.535 71.475 149.535C70.9 149.535 70.415 149.662 70.02 149.917C69.625 150.172 69.305 150.51 69.06 150.93C68.82 151.345 68.645 151.8 68.535 152.295C68.425 152.79 68.37 153.275 68.37 153.75C68.37 154.265 68.425 154.772 68.535 155.272C68.645 155.767 68.82 156.217 69.06 156.622C69.305 157.027 69.625 157.35 70.02 157.59C70.415 157.83 70.9 157.95 71.475 157.95ZM81.2592 159.18C80.5742 159.18 79.9767 159.022 79.4667 158.707C78.9617 158.392 78.5692 157.937 78.2892 157.342C78.0092 156.742 77.8692 156.02 77.8692 155.175V154.14C77.8692 153.065 77.9642 152.175 78.1542 151.47C78.3492 150.765 78.6217 150.207 78.9717 149.797C79.3217 149.382 79.7392 149.08 80.2242 148.89C80.7092 148.695 81.2442 148.575 81.8292 148.53L84.5142 148.32L83.7642 149.565L81.8142 149.73C81.2992 149.775 80.8742 149.872 80.5392 150.022C80.2092 150.172 79.9417 150.407 79.7367 150.727C79.5367 151.042 79.3742 151.47 79.2492 152.01C79.2292 152.105 79.2092 152.187 79.1892 152.257C79.1742 152.322 79.1592 152.385 79.1442 152.445C79.1842 152.37 79.2242 152.295 79.2642 152.22C79.3092 152.14 79.3542 152.07 79.3992 152.01C79.6242 151.73 79.9042 151.517 80.2392 151.372C80.5742 151.227 80.9542 151.155 81.3792 151.155C82.0242 151.155 82.5917 151.312 83.0817 151.627C83.5717 151.942 83.9542 152.4 84.2292 153C84.5092 153.595 84.6492 154.315 84.6492 155.16C84.6492 156 84.5092 156.72 84.2292 157.32C83.9492 157.92 83.5542 158.38 83.0442 158.7C82.5392 159.02 81.9442 159.18 81.2592 159.18ZM81.2592 157.965C81.9042 157.965 82.4092 157.717 82.7742 157.222C83.1442 156.722 83.3292 156.035 83.3292 155.16C83.3292 154.29 83.1467 153.605 82.7817 153.105C82.4217 152.605 81.9142 152.355 81.2592 152.355C80.6092 152.355 80.1017 152.602 79.7367 153.097C79.3717 153.587 79.1892 154.28 79.1892 155.175C79.1892 156.045 79.3717 156.727 79.7367 157.222C80.1017 157.717 80.6092 157.965 81.2592 157.965ZM96.3867 161.445V159H95.6217V157.86H97.6917V160.845L96.3867 161.445ZM86.7567 159V151.335H88.0617V157.86H90.9567V151.335H92.2617V157.86H95.1567V151.335H96.4617V159H86.7567ZM99.5741 159V151.335H100.879V156.705L104.599 151.335H105.904V159H104.599V153.645L100.879 159H99.5741ZM108.451 159V151.335H109.756V156.705L113.476 151.335H114.781V159H113.476V153.645L109.756 159H108.451ZM111.616 150.315C110.956 150.315 110.406 150.205 109.966 149.985C109.531 149.76 109.204 149.462 108.984 149.092C108.769 148.722 108.661 148.315 108.661 147.87H109.831C109.831 148.145 109.909 148.385 110.064 148.59C110.224 148.79 110.439 148.945 110.709 149.055C110.979 149.165 111.281 149.22 111.616 149.22C111.951 149.22 112.254 149.165 112.524 149.055C112.799 148.945 113.016 148.79 113.176 148.59C113.336 148.385 113.416 148.145 113.416 147.87H114.586C114.586 148.315 114.476 148.722 114.256 149.092C114.036 149.462 113.706 149.76 113.266 149.985C112.826 150.205 112.276 150.315 111.616 150.315ZM120.8 159V151.335H127.07V159H125.765V152.475H122.105V159H120.8ZM129.618 162.045V151.335H130.923V151.98C131.473 151.43 132.128 151.155 132.888 151.155C133.538 151.155 134.098 151.317 134.568 151.642C135.043 151.967 135.408 152.43 135.663 153.03C135.923 153.63 136.053 154.34 136.053 155.16C136.053 155.98 135.923 156.692 135.663 157.297C135.403 157.897 135.036 158.362 134.561 158.692C134.091 159.017 133.533 159.18 132.888 159.18C132.483 159.18 132.118 159.108 131.793 158.962C131.468 158.812 131.178 158.585 130.923 158.28V161.43L129.618 162.045ZM132.723 157.965C133.368 157.965 133.861 157.722 134.201 157.237C134.546 156.752 134.718 156.06 134.718 155.16C134.718 154.295 134.538 153.612 134.178 153.112C133.818 152.607 133.333 152.355 132.723 152.355C132.333 152.355 131.983 152.445 131.673 152.625C131.363 152.805 131.113 153.06 130.923 153.39V156.93C131.188 157.275 131.471 157.535 131.771 157.71C132.071 157.88 132.388 157.965 132.723 157.965ZM141.157 159.18C140.107 159.18 139.279 158.822 138.674 158.107C138.069 157.387 137.767 156.41 137.767 155.175C137.767 154.35 137.904 153.637 138.179 153.037C138.454 152.437 138.844 151.975 139.349 151.65C139.859 151.32 140.462 151.155 141.157 151.155C141.857 151.155 142.459 151.317 142.964 151.642C143.474 151.962 143.864 152.422 144.134 153.022C144.409 153.622 144.547 154.335 144.547 155.16C144.547 155.985 144.409 156.7 144.134 157.305C143.859 157.905 143.467 158.367 142.957 158.692C142.452 159.017 141.852 159.18 141.157 159.18ZM141.157 157.965C141.802 157.965 142.307 157.717 142.672 157.222C143.042 156.722 143.227 156.035 143.227 155.16C143.227 154.28 143.042 153.592 142.672 153.097C142.307 152.602 141.802 152.355 141.157 152.355C140.507 152.355 139.999 152.602 139.634 153.097C139.269 153.587 139.087 154.28 139.087 155.175C139.087 156.05 139.269 156.735 139.634 157.23C139.999 157.72 140.507 157.965 141.157 157.965ZM146.654 159V151.335H151.289V152.475H147.959V159H146.654ZM153.07 162.045V151.335H154.375V151.98C154.925 151.43 155.58 151.155 156.34 151.155C156.99 151.155 157.55 151.317 158.02 151.642C158.495 151.967 158.86 152.43 159.115 153.03C159.375 153.63 159.505 154.34 159.505 155.16C159.505 155.98 159.375 156.692 159.115 157.297C158.855 157.897 158.488 158.362 158.013 158.692C157.543 159.017 156.985 159.18 156.34 159.18C155.935 159.18 155.57 159.108 155.245 158.962C154.92 158.812 154.63 158.585 154.375 158.28V161.43L153.07 162.045ZM156.175 157.965C156.82 157.965 157.313 157.722 157.653 157.237C157.998 156.752 158.17 156.06 158.17 155.16C158.17 154.295 157.99 153.612 157.63 153.112C157.27 152.607 156.785 152.355 156.175 152.355C155.785 152.355 155.435 152.445 155.125 152.625C154.815 152.805 154.565 153.06 154.375 153.39V156.93C154.64 157.275 154.923 157.535 155.223 157.71C155.523 157.88 155.84 157.965 156.175 157.965ZM164.624 159.18C163.924 159.18 163.319 159.007 162.809 158.662C162.299 158.317 161.906 157.842 161.631 157.237C161.356 156.632 161.219 155.94 161.219 155.16C161.219 154.315 161.361 153.595 161.646 153C161.931 152.4 162.329 151.942 162.839 151.627C163.349 151.312 163.944 151.155 164.624 151.155C165.199 151.155 165.726 151.285 166.206 151.545C166.686 151.8 167.069 152.197 167.354 152.737C167.644 153.272 167.789 153.96 167.789 154.8C167.789 154.92 167.784 155.06 167.774 155.22C167.769 155.375 167.759 155.535 167.744 155.7H162.554C162.604 156.165 162.719 156.572 162.899 156.922C163.079 157.272 163.316 157.547 163.611 157.747C163.906 157.942 164.254 158.04 164.654 158.04C164.979 158.04 165.279 157.982 165.554 157.867C165.834 157.752 166.094 157.575 166.334 157.335L167.099 158.19C166.814 158.475 166.459 158.712 166.034 158.902C165.614 159.088 165.144 159.18 164.624 159.18ZM162.539 154.56H166.469C166.469 154.125 166.396 153.737 166.251 153.397C166.111 153.052 165.904 152.782 165.629 152.587C165.354 152.392 165.019 152.295 164.624 152.295C164.069 152.295 163.591 152.475 163.191 152.835C162.796 153.195 162.579 153.77 162.539 154.56ZM172.602 159.18C171.942 159.18 171.374 159.02 170.899 158.7C170.424 158.375 170.059 157.915 169.804 157.32C169.549 156.72 169.422 156.005 169.422 155.175C169.422 154.34 169.552 153.622 169.812 153.022C170.072 152.422 170.442 151.962 170.922 151.642C171.407 151.317 171.987 151.155 172.662 151.155C173.322 151.155 173.882 151.307 174.342 151.612C174.802 151.917 175.137 152.36 175.347 152.94L174.117 153.39C173.992 153.06 173.804 152.807 173.554 152.632C173.309 152.457 173.017 152.37 172.677 152.37C172.057 152.37 171.582 152.61 171.252 153.09C170.922 153.57 170.757 154.265 170.757 155.175C170.757 156.065 170.919 156.75 171.244 157.23C171.569 157.71 172.032 157.95 172.632 157.95C173.017 157.95 173.344 157.85 173.614 157.65C173.889 157.45 174.082 157.17 174.192 156.81L175.407 157.215C175.222 157.845 174.884 158.33 174.394 158.67C173.904 159.01 173.307 159.18 172.602 159.18ZM180.161 159.18C179.501 159.18 178.933 159.02 178.458 158.7C177.983 158.375 177.618 157.915 177.363 157.32C177.108 156.72 176.981 156.005 176.981 155.175C176.981 154.34 177.111 153.622 177.371 153.022C177.631 152.422 178.001 151.962 178.481 151.642C178.966 151.317 179.546 151.155 180.221 151.155C180.881 151.155 181.441 151.307 181.901 151.612C182.361 151.917 182.696 152.36 182.906 152.94L181.676 153.39C181.551 153.06 181.363 152.807 181.113 152.632C180.868 152.457 180.576 152.37 180.236 152.37C179.616 152.37 179.141 152.61 178.811 153.09C178.481 153.57 178.316 154.265 178.316 155.175C178.316 156.065 178.478 156.75 178.803 157.23C179.128 157.71 179.591 157.95 180.191 157.95C180.576 157.95 180.903 157.85 181.173 157.65C181.448 157.45 181.641 157.17 181.751 156.81L182.966 157.215C182.781 157.845 182.443 158.33 181.953 158.67C181.463 159.01 180.866 159.18 180.161 159.18Z" fill="#AAAAAA"/>
<path d="M84.5 96.5C89.0667 96.5 94.5667 96.8333 101 97.5V104.25C99.1667 104.15 97.6 104.067 96.3 104C95.0333 103.9 93.9833 103.833 93.15 103.8C92.35 103.733 91.55 103.667 90.75 103.6C89.4167 103.533 88.1833 103.5 87.05 103.5C85.0167 103.5 84 104.333 84 106V110.5C87.2333 109.833 90.0667 109.5 92.5 109.5H96C98.2667 109.5 100.083 110.183 101.45 111.55C102.817 112.917 103.5 114.733 103.5 117V123.5C103.5 126.533 102.733 128.8 101.2 130.3C99.6667 131.767 97.2667 132.5 94 132.5H84.5C81.2333 132.5 78.8333 131.767 77.3 130.3C75.7667 128.8 75 126.533 75 123.5V106C75 102.733 75.7667 100.333 77.3 98.8C78.8333 97.2667 81.2333 96.5 84.5 96.5ZM90 116.5C88.7333 116.5 87.5667 116.567 86.5 116.7C85.4667 116.833 84.6333 116.933 84 117V122.5C84 124.5 85 125.5 87 125.5H91.5C93.5 125.5 94.5 124.5 94.5 122.5V118.25C94.5 117.75 94.3333 117.333 94 117C93.6667 116.667 93.25 116.5 92.75 116.5H90ZM123.994 132.5C118.427 132.5 112.261 132.167 105.494 131.5V124.75C112.861 125.25 118.361 125.5 121.994 125.5C122.761 125.5 123.361 125.283 123.794 124.85C124.261 124.383 124.494 123.767 124.494 123V120.5C124.494 118.5 123.494 117.5 121.494 117.5H106.994V97H130.994V104H115.994V110.5H123.994C127.261 110.5 129.661 111.25 131.194 112.75C132.727 114.217 133.494 116.467 133.494 119.5V123C133.494 126.267 132.727 128.667 131.194 130.2C129.661 131.733 127.261 132.5 123.994 132.5ZM141.975 132L161.975 97H169.475L149.975 132H141.975ZM152.475 108.75C152.475 110.75 151.925 112.3 150.825 113.4C149.758 114.467 148.225 115 146.225 115H141.725C139.725 115 138.175 114.467 137.075 113.4C136.008 112.3 135.475 110.75 135.475 108.75V102.75C135.475 100.75 136.008 99.2167 137.075 98.15C138.175 97.05 139.725 96.5 141.725 96.5H146.225C148.225 96.5 149.758 97.05 150.825 98.15C151.925 99.2167 152.475 100.75 152.475 102.75V108.75ZM146.475 102.75C146.475 101.583 145.891 101 144.725 101H143.225C142.058 101 141.475 101.583 141.475 102.75V108.75C141.475 109.917 142.058 110.5 143.225 110.5H144.725C145.891 110.5 146.475 109.917 146.475 108.75V102.75ZM176.475 126.25C176.475 128.25 175.925 129.8 174.825 130.9C173.758 131.967 172.225 132.5 170.225 132.5H165.725C163.725 132.5 162.175 131.967 161.075 130.9C160.008 129.8 159.475 128.25 159.475 126.25V120.25C159.475 118.25 160.008 116.717 161.075 115.65C162.175 114.55 163.725 114 165.725 114H170.225C172.225 114 173.758 114.55 174.825 115.65C175.925 116.717 176.475 118.25 176.475 120.25V126.25ZM170.475 120.25C170.475 119.083 169.891 118.5 168.725 118.5H167.225C166.058 118.5 165.475 119.083 165.475 120.25V126.25C165.475 127.417 166.058 128 167.225 128H168.725C169.891 128 170.475 127.417 170.475 126.25V120.25Z" fill="#008000"/>
</svg>
