<svg width="46" height="49" viewBox="0 0 46 49" fill="none" xmlns="http://www.w3.org/2000/svg">
<path d="M36.7 23.8C32.3 19.4 25.175 19.425 20.8 23.825C16.4 28.225 16.4 35.35 20.8 39.725C24.525 43.425 30.275 44.075 34.725 41.3L42.5 48.975L45.975 45.5L38.25 37.725C41.075 33.3 40.425 27.5 36.7 23.8ZM33.175 36.175C30.725 38.625 26.775 38.6 24.325 36.175C21.9 33.725 21.9 29.775 24.35 27.325C26.775 24.9 30.725 24.9 33.175 27.325C35.6 29.775 35.6 33.725 33.175 36.175ZM17.25 43.25C15.625 41.6 14.35 39.625 13.55 37.45C5.675 36.125 0 32.4 0 28V35.5C0 41.025 8.95 45.5 20 45.5C19 44.85 18.075 44.1 17.25 43.25ZM0 15.5V23C0 27.2 5.175 30.8 12.5 32.25C12.5 32.075 12.5 31.925 12.5 31.75C12.5 29.425 13 27.125 13.95 25.025C5.85 23.75 0 19.975 0 15.5ZM20 0.5C8.95 0.5 0 4.975 0 10.5C0 15.5 7.5 19.7 17.125 20.5H17.25C20.25 17.35 24.4 15.5 28.75 15.5C31.025 15.5 33.275 15.975 35.35 16.9C37.925 15.725 39.675 13.3 40 10.5C40 4.975 31.05 0.5 20 0.5Z" fill="#6A6A6A"/>
</svg>
