<svg width="24" height="24" viewBox="0 0 24 24" fill="none" xmlns="http://www.w3.org/2000/svg">
<path d="M22.998 12H15.498C15.123 11.6625 14.7746 11.2496 14.3996 10.9496C13.6496 10.4246 12.8996 10.0496 12.1121 9.82461C13.6496 8.99961 14.6621 7.38711 14.6621 5.51211C14.6621 2.81211 12.4496 0.599609 9.74961 0.599609C7.04961 0.599609 4.83711 2.81211 4.83711 5.51211C4.83711 7.34961 5.88711 8.99961 7.38711 9.82461C5.88711 10.3496 4.49961 11.2496 3.37461 12.5621C1.76211 14.4746 0.824609 17.1746 0.787109 20.0621C0.787109 20.3996 0.974609 20.6996 1.23711 20.8496C2.24961 21.3746 5.88711 23.0246 9.74961 23.0246C10.0871 23.0246 10.4246 23.0246 10.7621 22.9871C11.4746 22.9496 12.2246 22.8371 12.9746 22.6871C13.3496 22.6121 13.998 22.5 13.998 22.5V23H17.998L22.998 22.9871V12ZM9.74961 2.36211C11.5121 2.36211 12.9746 3.78711 12.9746 5.58711C12.9746 7.34961 11.5496 8.81211 9.74961 8.81211C7.94961 8.81211 6.52461 7.38711 6.52461 5.58711C6.52461 3.78711 7.98711 2.36211 9.74961 2.36211ZM12.6746 21.0371C11.9996 21.1496 11.3246 21.2621 10.6496 21.2996C10.3496 21.3371 10.0496 21.3371 9.74961 21.3371C6.71211 21.3371 3.82461 20.2121 2.47461 19.5746C2.62461 17.2496 3.37461 15.1871 4.64961 13.6496C6.26211 11.7371 8.54961 10.8746 10.9121 11.2871C11.7746 11.4371 12.5996 11.8121 13.4246 12.3371C13.7246 12.5621 13.773 12.775 13.998 13V15V20.5L13.6496 20.6996C13.2746 20.8871 12.9746 20.9996 12.6746 21.0371ZM21.498 21.5H15.498V13.5H21.498V21.5Z" fill="#AAAAAA"/>
<path d="M16 15H21" stroke="#AAAAAA"/>
<path d="M16 17H21" stroke="#AAAAAA"/>
<path d="M20.976 19.1078C20.9242 18.925 20.7585 18.8066 20.572 18.8066H20.0541L19.8987 18.3011C19.8469 18.1183 19.6812 18 19.4947 18C19.3083 18 19.1529 18.1183 19.0907 18.3011L18.9457 18.8066H18.4278C18.2413 18.8066 18.086 18.925 18.0238 19.1078C17.9617 19.2906 18.0238 19.4842 18.1792 19.6025L18.5935 19.9144L18.4382 20.4199C18.3864 20.6028 18.4382 20.7964 18.5935 20.9147C18.7386 21.0222 18.9457 21.0222 19.0907 20.9147L19.5051 20.6028L19.9194 20.9147C19.9919 20.9685 20.0852 21.0007 20.168 21.0007C20.2509 21.0007 20.3441 20.9685 20.4166 20.9147C20.5617 20.8071 20.6238 20.6028 20.572 20.4199L20.4166 19.9144L20.831 19.6025C20.976 19.495 21.0382 19.2906 20.976 19.1078ZM20.1162 19.538C19.9712 19.6456 19.9091 19.8499 19.9609 20.0327L20.0852 20.4414L19.7537 20.1941C19.6087 20.0865 19.4015 20.0865 19.2565 20.1941L18.925 20.4414L19.0493 20.0327C19.1011 19.8499 19.0493 19.6563 18.8939 19.538L18.5625 19.2906H18.9768C19.1633 19.2906 19.3186 19.1723 19.3808 18.9895L19.5051 18.5808L19.6294 18.9895C19.6812 19.1723 19.8469 19.2906 20.0334 19.2906H20.4477L20.1162 19.538Z" fill="#AAAAAA"/>
</svg>
