<svg width="24" height="24" viewBox="0 0 24 24" fill="none" xmlns="http://www.w3.org/2000/svg">
<path d="M16.2 12.75C15.075 11.4 13.65 10.4625 12.075 9.97498C13.65 9.14998 14.7 7.49998 14.7 5.58748C14.7 2.84998 12.4875 0.599976 9.74995 0.599976C7.01245 0.599976 4.76245 2.88748 4.76245 5.62498C4.76245 7.49998 5.81245 9.14998 7.38745 10.0125C5.81245 10.5 4.42495 11.4375 3.26245 12.7875C1.61245 14.7375 0.674951 17.4375 0.637451 20.4C0.637451 20.7375 0.824951 21.0375 1.08745 21.1875C2.13745 21.7125 5.81245 23.3625 9.71245 23.3625C11.775 23.3625 13.725 23.025 13.8375 22.9875C14.2875 22.9125 14.5875 22.4625 14.5125 22.0125C14.4375 21.5625 13.9875 21.2625 13.5375 21.3375C13.5375 21.3375 11.6625 21.675 9.71245 21.675C6.63745 21.675 3.67495 20.5125 2.32495 19.9125C2.47495 17.55 3.22495 15.4125 4.53745 13.875C5.88745 12.2625 7.72495 11.3625 9.71245 11.3625C11.7 11.3625 13.5375 12.2625 14.8875 13.875C15.1875 14.25 15.7125 14.2875 16.0875 13.9875C16.4625 13.65 16.5 13.125 16.2 12.75ZM9.74995 2.36248C11.55 2.36248 13.0125 3.82498 13.0125 5.66248C13.0125 7.49998 11.55 8.96247 9.74995 8.96247C7.94995 8.96247 6.44995 7.49998 6.44995 5.66248C6.44995 3.82498 7.91245 2.36248 9.74995 2.36248Z" fill="#AAAAAA"/>
<path d="M23.3621 19.6125C23.3621 18.2625 22.2371 17.175 20.8496 17.175H18.5996C18.1496 17.175 17.7746 16.8375 17.7746 16.425C17.7746 16.0125 18.1496 15.675 18.5996 15.675H21.8996C22.3496 15.675 22.7621 15.3 22.7621 14.8125C22.7621 14.325 22.3871 13.95 21.8996 13.95H20.8496V13.8375C20.8496 13.3875 20.4746 12.975 19.9871 12.975C19.4996 12.975 19.1246 13.35 19.1246 13.8375V13.95H18.5621C17.1746 13.95 16.0496 15.0375 16.0496 16.3875C16.0496 17.7375 17.1746 18.825 18.5621 18.825H20.8121C21.2621 18.825 21.6371 19.1625 21.6371 19.575C21.6371 19.9875 21.2621 20.325 20.8121 20.325H17.0621C16.6121 20.325 16.1996 20.7 16.1996 21.1875C16.1996 21.675 16.5746 22.05 17.0621 22.05H19.1621V22.1625C19.1621 22.6125 19.5371 23.025 20.0246 23.025C20.5121 23.025 20.8871 22.65 20.8871 22.1625V22.05C22.2371 22.05 23.3621 20.925 23.3621 19.6125Z" fill="#AAAAAA"/>
</svg>
