<svg width="24" height="24" viewBox="0 0 24 24" fill="none" xmlns="http://www.w3.org/2000/svg">
<g clip-path="url(#clip0_3137_17055)">
<path d="M22.998 12H15.498C15.123 11.6625 14.7746 11.2496 14.3996 10.9496C13.6496 10.4246 12.8996 10.0496 12.1121 9.82461C13.6496 8.99961 14.6621 7.38711 14.6621 5.51211C14.6621 2.81211 12.4496 0.599609 9.74961 0.599609C7.04961 0.599609 4.83711 2.81211 4.83711 5.51211C4.83711 7.34961 5.88711 8.99961 7.38711 9.82461C5.88711 10.3496 4.49961 11.2496 3.37461 12.5621C1.76211 14.4746 0.824609 17.1746 0.787109 20.0621C0.787109 20.3996 0.974609 20.6996 1.23711 20.8496C2.24961 21.3746 5.88711 23.0246 9.74961 23.0246C10.0871 23.0246 10.4246 23.0246 10.7621 22.9871C11.4746 22.9496 12.2246 22.8371 12.9746 22.6871C13.3496 22.6121 13.998 22.5 13.998 22.5V23H17.998L22.998 22.9871V12ZM9.74961 2.36211C11.5121 2.36211 12.9746 3.78711 12.9746 5.58711C12.9746 7.34961 11.5496 8.81211 9.74961 8.81211C7.94961 8.81211 6.52461 7.38711 6.52461 5.58711C6.52461 3.78711 7.98711 2.36211 9.74961 2.36211ZM12.6746 21.0371C11.9996 21.1496 11.3246 21.2621 10.6496 21.2996C10.3496 21.3371 10.0496 21.3371 9.74961 21.3371C6.71211 21.3371 3.82461 20.2121 2.47461 19.5746C2.62461 17.2496 3.37461 15.1871 4.64961 13.6496C6.26211 11.7371 8.54961 10.8746 10.9121 11.2871C11.7746 11.4371 12.5996 11.8121 13.4246 12.3371C13.7246 12.5621 13.773 12.775 13.998 13V15V20.5L13.6496 20.6996C13.2746 20.8871 12.9746 20.9996 12.6746 21.0371ZM21.498 21.5H20.498V16.5H18.998V21.5H17.998V14H16.498V21.5H15.498C15.498 21.5 15.498 15.71 15.498 12H22.998V19H21.498V21.5Z" fill="#AAAAAA"/>
<path d="M16.5843 11.662L16.844 12.8701C16.8649 12.9378 16.8963 12.9966 16.9382 13.0465C17.0116 13.1339 17.1376 13.1985 17.2532 13.1866C17.4425 13.1768 17.5375 13.0119 17.5065 12.8251L17.413 12.3927L22.8064 16.317C22.9743 16.4315 23.1741 16.4129 23.2586 16.2568C23.3431 16.1008 23.2911 15.889 23.1232 15.7745L17.8241 11.9413L18.1291 11.9196C18.3183 11.9098 18.4134 11.7449 18.3823 11.5581C18.3408 11.3588 18.1624 11.2318 17.9837 11.2328L16.8376 11.3005C16.6483 11.3103 16.5428 11.484 16.5843 11.662Z" fill="#AAAAAA"/>
</g>
<defs>
<clipPath id="clip0_3137_17055">
<rect width="24" height="24" fill="white"/>
</clipPath>
</defs>
</svg>
