<svg width="22" height="24" viewBox="0 0 22 24" fill="none" xmlns="http://www.w3.org/2000/svg">
<path d="M15.9504 17.7373C15.5004 17.7373 15.0879 18.1123 15.0879 18.5998V19.8748C15.0879 20.3248 15.4629 20.7373 15.9504 20.7373C16.4379 20.7373 16.8129 20.3623 16.8129 19.8748V18.5998C16.8129 18.1123 16.4379 17.7373 15.9504 17.7373Z" fill="#DFDFDF"/>
<path d="M15.9504 12.2248C15.7629 12.2248 15.5754 12.2248 15.4254 12.2623C14.3379 11.0248 13.0254 10.1248 11.5629 9.6748C13.0254 8.8498 14.0379 7.27481 14.0379 5.4748C14.0379 2.8123 11.8629 0.674805 9.23789 0.674805C6.57539 0.674805 4.43789 2.8498 4.43789 5.4748C4.43789 7.27481 5.45039 8.8498 6.91289 9.6748C5.45039 10.1248 4.10039 11.0248 3.01289 12.2998C1.43789 14.1748 0.537891 16.7998 0.462891 19.6498C0.462891 19.9873 0.650391 20.2873 0.912891 20.4373C1.92539 20.9248 5.45039 22.5373 9.23789 22.5373C10.3254 22.5373 11.4504 22.4248 12.5754 22.1998C13.5129 22.9123 14.6754 23.3623 15.9504 23.3623C19.0254 23.3623 21.5004 20.8498 21.5004 17.8123C21.5004 14.7748 19.0254 12.2248 15.9504 12.2248ZM9.23789 2.3623C10.9629 2.3623 12.3504 3.7498 12.3504 5.4748C12.3504 7.1998 10.9629 8.58731 9.23789 8.58731C7.51289 8.58731 6.12539 7.1998 6.12539 5.4748C6.12539 3.7498 7.51289 2.3623 9.23789 2.3623ZM2.18789 19.1623C2.33789 16.9123 3.08789 14.8873 4.32539 13.3873C5.63789 11.8498 7.40039 10.9873 9.27539 10.9873C10.8879 10.9873 12.3879 11.6248 13.6254 12.7498C11.7504 13.6498 10.4379 15.5623 10.4379 17.7748C10.4379 18.8623 10.7379 19.8373 11.3004 20.6998C10.6254 20.7748 9.95039 20.8498 9.31289 20.8498C6.31289 20.8498 3.46289 19.7623 2.18789 19.1623ZM15.9504 21.6748C13.8129 21.6748 12.0879 19.9498 12.0879 17.8123C12.0879 15.6748 13.8129 13.9498 15.9504 13.9498C18.0879 13.9498 19.8129 15.6748 19.8129 17.8123C19.8129 19.9498 18.0879 21.6748 15.9504 21.6748Z" fill="#DFDFDF"/>
<path d="M15.5004 17.0999C15.5379 17.1374 15.6129 17.1374 15.6504 17.1749C15.6879 17.2124 15.7629 17.2124 15.8004 17.2124C15.8379 17.2124 15.9129 17.2124 15.9504 17.2124C16.1754 17.2124 16.4004 17.1374 16.5504 16.9499C16.5879 16.9124 16.6254 16.8749 16.6629 16.8374C16.7004 16.7999 16.7379 16.7249 16.7379 16.6874C16.7754 16.6499 16.7754 16.5749 16.7754 16.5374C16.7754 16.4999 16.7754 16.4249 16.7754 16.3874C16.7754 16.3124 16.7754 16.2749 16.7754 16.2374C16.7754 16.1999 16.7379 16.1249 16.7379 16.0874C16.7004 16.0499 16.7004 15.9749 16.6629 15.9374C16.6254 15.8999 16.5879 15.8624 16.5504 15.8249C16.2504 15.5249 15.6504 15.5249 15.3504 15.8249C15.2004 15.9749 15.0879 16.1999 15.0879 16.4249C15.0879 16.6499 15.1629 16.8749 15.3504 17.0249C15.4254 17.0624 15.4629 17.0624 15.5004 17.0999Z" fill="#DFDFDF"/>
</svg>
